<?xml version="1.0" standalone="no"?>
<!DOCTYPE svg PUBLIC "-//W3C//DTD SVG 20010904//EN"
 "http://www.w3.org/TR/2001/REC-SVG-20010904/DTD/svg10.dtd">
<svg version="1.0" xmlns="http://www.w3.org/2000/svg"
 width="299.000000pt" height="299.000000pt" viewBox="0 0 299.000000 299.000000"
 preserveAspectRatio="xMidYMid meet">
<metadata>
Created by potrace 1.11, written by Peter Selinger 2001-2013
</metadata>
<g transform="translate(0.000000,299.000000) scale(0.100000,-0.100000)"
fill="#000000" stroke="none">
<path d="M2438 2867 c-59 -67 -124 -142 -146 -166 l-39 -44 -66 52 c-140 110
-331 200 -502 236 -44 10 -134 19 -200 20 -109 3 -144 0 -270 -20 -66 -11
-215 -64 -299 -108 -258 -133 -489 -380 -611 -652 -14 -33 -33 -73 -40 -90
-20 -44 -52 -149 -71 -230 -17 -73 -19 -84 -31 -175 -10 -74 -10 -341 0 -415
31 -225 108 -453 214 -627 l41 -67 -139 -161 -139 -161 112 -97 c61 -53 127
-112 147 -129 l36 -32 35 37 c19 20 69 75 110 122 41 47 82 93 91 103 16 17
20 16 90 -35 198 -142 410 -215 647 -224 489 -18 934 267 1176 753 41 82 107
262 121 330 86 413 46 784 -122 1128 -19 38 -43 83 -53 100 l-19 31 37 41 c20
22 75 84 122 138 47 54 104 118 128 144 l42 46 -74 70 c-131 124 -205 193
-214 198 -4 3 -56 -49 -114 -116z m-836 -302 c80 -16 158 -45 228 -84 51 -28
145 -95 155 -111 5 -8 -81 -120 -116 -150 -3 -3 -70 -79 -149 -170 -80 -91
-161 -183 -182 -205 -84 -89 -83 -145 3 -239 98 -108 218 -132 272 -56 8 11
32 40 53 63 22 23 104 116 183 207 79 91 155 176 167 189 l23 25 25 -55 c79
-180 115 -428 92 -639 -16 -139 -97 -398 -142 -451 -8 -8 -14 -20 -14 -26 0
-19 -97 -148 -157 -208 -112 -113 -213 -178 -354 -227 -88 -30 -103 -32 -234
-32 -120 -1 -151 3 -215 22 -87 27 -211 90 -258 130 l-33 27 28 31 c15 16 55
61 88 98 33 38 70 80 84 95 13 14 44 49 70 77 25 28 60 66 76 85 17 19 63 71
103 115 85 96 92 120 56 193 -44 88 -155 170 -230 171 -34 0 -52 -15 -149
-125 -33 -37 -67 -75 -75 -84 -9 -9 -49 -54 -90 -101 -41 -47 -82 -92 -90
-100 -9 -8 -40 -43 -69 -77 -30 -35 -57 -63 -61 -63 -18 0 -96 207 -121 322
-17 79 -23 138 -23 253 -1 216 16 317 85 495 117 304 382 546 663 605 87 18
223 18 308 0z"/>
</g>
</svg>
